# xmcd
#
# Track frame offsets:
#	150
#	12646
#	25467
#	41275
#	51329
#	71105
#	83567
#	100069
#	114189
#	128517
#	142248
#	154326
#	177150
#	194896
#	210211
#	222647
#	237762
#	256290
#	268885
#	284091
#
# Disc length: 4017 seconds
#
# Revision: 1
# Processed by: cddbd v1.5.2PL0 Copyright (c) Steve Scherf et al.
# Submitted via: audiograbber 1.83.01
#
DISCID=320faf14
DTITLE=Clay Walker - The Platinum Collection [Rhino]
DYEAR=1900
DGENRE=Country
TTITLE0=What's It To You
TTITLE1=Live Until I Die
TTITLE2=Dreaming With My Eyes Open
TTITLE3=If I Could Make A Living
TTITLE4=This Woman And This Man
TTITLE5=Who Needs You Baby
TTITLE6=Hypnotize The Moon
TTITLE7=Rumor Has It
TTITLE8=Watch This
TTITLE9=Then What
TTITLE10=You're Beginning To Get To Me
TTITLE11=The Chain Of Love
TTITLE12=Where Do I Fit In The Picture
TTITLE13=My Heart Will Never Know
TTITLE14=Only On Days That End In Y
TTITLE15=She's Always Right
TTITLE16=Live, Laugh, Love
TTITLE17=White Palace
TTITLE18=Holding Her And Loving You
TTITLE19=Ordinary People
EXTD=
EXTT0=
EXTT1=
EXTT2=
EXTT3=
EXTT4=
EXTT5=
EXTT6=
EXTT7=
EXTT8=
EXTT9=
EXTT10=
EXTT11=
EXTT12=
EXTT13=
EXTT14=
EXTT15=
EXTT16=
EXTT17=
EXTT18=
EXTT19=
PLAYORDER=
